{"glyphs":{"0":{"ha":647,"x_min":0,"x_max":0,"o":"m 324 972 b 18 708 169 972 33 858 l 18 243 b 324 -21 33 93 169 -21 b 629 243 478 -21 614 93 l 629 708 b 324 972 614 858 478 972 z m 46 468 l 46 504 l 601 504 l 601 468 z "},"1":{"ha":647,"x_min":0,"x_max":0,"o":"m 18 468 l 18 0 l 629 0 l 629 468 l 463 468 l 463 972 b 157 708 308 972 172 858 l 157 504 l 435 504 l 435 468 z "},"2":{"ha":653,"x_min":0,"x_max":0,"o":"m 635 0 l 635 300 l 46 300 l 46 336 l 326 336 b 635 636 493 336 629 469 l 635 672 b 326 972 629 839 493 972 b 18 672 160 972 24 839 l 607 672 l 607 636 l 326 636 b 18 336 160 636 24 503 l 18 0 z "},"3":{"ha":742,"x_min":0,"x_max":0,"o":"m 696 300 l 107 300 b 415 0 113 133 249 0 b 724 300 582 0 718 133 l 724 336 b 606 569 721 431 675 515 b 626 672 618 601 625 636 b 318 972 621 839 485 972 l 10 972 b 318 672 15 806 151 672 l 599 672 b 581 588 597 643 592 614 b 415 636 533 618 476 636 l 107 636 b 415 336 113 469 249 336 l 696 336 z "},"4":{"ha":783,"x_min":0,"x_max":0,"o":"m 147 300 l 149 0 l 592 0 l 592 300 l 383 300 l 383 336 l 774 336 l 774 636 l 315 636 b 175 597 265 636 217 622 l 175 653 b 453 915 318 665 439 775 l 453 972 l 147 972 l 147 579 b 10 336 71 525 18 433 l 356 336 l 356 300 z "},"5":{"ha":653,"x_min":0,"x_max":0,"o":"m 567 672 l 567 972 l 18 972 l 18 635 b 326 336 24 468 160 336 l 607 336 l 607 300 l 18 300 b 326 0 24 133 160 0 b 635 300 493 0 629 133 l 635 336 b 326 636 629 503 493 636 l 46 635 l 46 672 z "},"6":{"ha":653,"x_min":0,"x_max":0,"o":"m 607 336 l 607 300 l 46 300 l 46 336 z m 18 300 b 326 0 24 133 160 0 b 635 300 493 0 629 133 l 635 336 b 326 636 629 503 493 636 l 46 636 l 46 674 l 326 672 l 450 672 l 450 972 l 326 972 b 18 674 160 972 24 840 z "},"7":{"ha":647,"x_min":0,"x_max":0,"o":"m 629 768 l 629 972 l 18 972 l 18 504 l 324 504 b 507 558 389 504 454 524 l 507 488 b 229 225 363 475 229 365 l 229 0 l 535 0 l 535 579 b 629 768 592 626 629 692 z "},"8":{"ha":713,"x_min":0,"x_max":0,"o":"m 46 336 l 667 336 l 667 300 l 46 300 z m 18 300 b 329 0 25 135 160 0 l 383 0 b 694 300 553 0 688 133 l 694 336 b 558 581 690 438 638 526 l 558 796 b 354 972 547 896 457 972 b 150 796 253 971 161 896 l 150 579 b 18 336 74 525 22 436 z m 178 597 l 178 672 l 531 672 l 531 597 b 383 636 488 621 438 635 l 329 636 b 178 597 274 636 222 622 z "},"9":{"ha":644,"x_min":0,"x_max":0,"o":"m 38 636 l 38 674 l 599 674 l 599 636 z m 10 636 b 318 336 15 468 151 336 l 599 336 l 599 299 l 318 300 l 194 300 l 194 0 l 318 0 b 626 299 485 0 621 132 l 626 674 b 318 972 621 840 485 972 b 10 674 151 972 15 840 z "},"\u0000":{"ha":278,"x_min":0,"x_max":0,"o":""}," ":{"ha":278,"x_min":0,"x_max":0,"o":""},"!":{"ha":336,"x_min":0,"x_max":0,"o":"m 18 300 l 18 0 l 318 0 l 318 300 z m 154 328 l 182 328 l 182 972 l 154 972 z "},"&":{"ha":1038,"x_min":0,"x_max":0,"o":"m 329 0 l 383 0 b 692 272 543 0 672 121 l 708 272 l 708 0 l 1019 0 b 708 300 1013 165 878 297 l 694 300 l 694 336 l 713 336 b 1019 636 872 336 1006 476 l 694 636 l 694 796 b 490 972 683 896 593 972 b 286 796 389 971 297 896 l 286 633 b 18 336 144 613 31 483 l 18 300 b 329 0 25 138 160 0 z m 46 300 l 46 336 l 667 336 l 667 300 z m 314 636 l 314 672 l 667 672 l 667 636 z "},",":{"ha":336,"x_min":0,"x_max":0,"o":"m 18 300 l 18 -300 b 318 0 185 -300 318 -167 l 318 300 z "},"-":{"ha":636,"x_min":0,"x_max":0,"o":"m 18 496 l 18 468 l 618 468 l 618 496 z "},".":{"ha":336,"x_min":0,"x_max":0,"o":"m 18 300 l 18 0 l 318 0 l 318 300 z "},"/":{"ha":481,"x_min":0,"x_max":0,"o":"m 435 972 l 18 0 l 46 0 l 463 972 z "},":":{"ha":336,"x_min":0,"x_max":0,"o":"m 18 636 l 18 336 l 318 336 l 318 636 z m 18 0 l 318 0 l 318 300 l 18 300 z "},";":{"ha":336,"x_min":0,"x_max":0,"o":"m 18 636 l 18 336 l 318 336 l 318 636 z m 18 -300 b 318 0 185 -300 318 -167 l 318 300 l 18 300 z "},"?":{"ha":772,"x_min":0,"x_max":0,"o":"m 157 300 l 157 0 l 457 0 l 457 300 z m 18 672 l 735 672 l 735 636 l 464 636 b 157 336 304 636 171 496 l 456 336 b 763 636 615 336 749 476 l 763 672 b 454 972 758 838 621 972 l 18 972 z "},"A":{"ha":936,"x_min":0,"x_max":0,"o":"m 163 729 l 163 300 l 18 300 l 18 0 l 450 0 l 450 300 l 190 300 l 190 336 l 746 336 l 746 300 l 486 300 l 486 0 l 918 0 l 918 300 l 774 300 l 774 729 b 468 993 758 879 622 993 b 163 729 314 993 178 879 z m 190 636 l 190 672 l 746 672 l 746 636 z "},"a":{"ha":936,"x_min":0,"x_max":0,"o":"m 163 729 l 163 300 l 18 300 l 18 0 l 450 0 l 450 300 l 190 300 l 190 336 l 746 336 l 746 300 l 486 300 l 486 0 l 918 0 l 918 300 l 774 300 l 774 729 b 468 993 758 879 622 993 b 163 729 314 993 178 879 z m 190 636 l 190 672 l 746 672 l 746 636 z "},"B":{"ha":868,"x_min":0,"x_max":0,"o":"m 18 672 l 163 672 l 163 301 l 18 301 l 18 0 l 547 0 b 858 301 717 0 851 136 l 858 336 b 650 619 853 467 768 578 l 650 672 b 342 972 646 838 508 972 l 18 972 z m 190 301 l 190 336 l 831 336 l 831 301 z m 190 636 l 190 672 l 622 672 l 622 628 b 547 636 599 633 574 636 z "},"b":{"ha":868,"x_min":0,"x_max":0,"o":"m 18 672 l 163 672 l 163 301 l 18 301 l 18 0 l 547 0 b 858 301 717 0 851 136 l 858 336 b 650 619 853 467 768 578 l 650 672 b 342 972 646 838 508 972 l 18 972 z m 190 301 l 190 336 l 831 336 l 831 301 z m 190 636 l 190 672 l 622 672 l 622 628 b 547 636 599 633 574 636 z "},"C":{"ha":811,"x_min":0,"x_max":0,"o":"m 10 504 l 10 468 b 496 0 19 208 233 0 l 793 0 l 793 468 l 38 468 l 38 504 l 793 504 l 793 972 l 496 972 b 10 504 233 972 19 764 z "},"c":{"ha":811,"x_min":0,"x_max":0,"o":"m 10 504 l 10 468 b 496 0 19 208 233 0 l 793 0 l 793 468 l 38 468 l 38 504 l 793 504 l 793 972 l 496 972 b 10 504 233 972 19 764 z "},"D":{"ha":839,"x_min":0,"x_max":0,"o":"m 18 504 l 160 504 l 160 468 l 18 468 l 18 0 l 343 0 b 829 468 606 0 819 208 l 829 504 b 343 972 819 764 606 972 l 18 972 z m 188 468 l 188 504 l 801 504 l 801 468 z "},"d":{"ha":839,"x_min":0,"x_max":0,"o":"m 18 504 l 160 504 l 160 468 l 18 468 l 18 0 l 343 0 b 829 468 606 0 819 208 l 829 504 b 343 972 819 764 606 972 l 18 972 z m 188 468 l 188 504 l 801 504 l 801 468 z "},"E":{"ha":881,"x_min":0,"x_max":0,"o":"m 121 672 l 121 300 l 18 300 l 18 0 l 863 0 l 863 300 l 149 300 l 149 336 l 589 336 l 589 636 l 149 636 l 149 672 l 863 672 l 863 972 l 18 972 l 18 672 z "},"e":{"ha":881,"x_min":0,"x_max":0,"o":"m 121 672 l 121 300 l 18 300 l 18 0 l 863 0 l 863 300 l 149 300 l 149 336 l 589 336 l 589 636 l 149 636 l 149 672 l 863 672 l 863 972 l 18 972 l 18 672 z "},"F":{"ha":896,"x_min":0,"x_max":0,"o":"m 18 972 l 18 672 l 135 672 l 135 300 l 18 300 l 19 0 l 536 0 l 536 300 l 163 300 l 163 336 l 733 336 l 733 636 l 163 636 l 163 672 l 878 672 l 878 972 z "},"f":{"ha":896,"x_min":0,"x_max":0,"o":"m 18 972 l 18 672 l 135 672 l 135 300 l 18 300 l 19 0 l 536 0 l 536 300 l 163 300 l 163 336 l 733 336 l 733 636 l 163 636 l 163 672 l 878 672 l 878 972 z "},"G":{"ha":1000,"x_min":0,"x_max":0,"o":"m 10 504 l 10 468 l 38 468 l 38 504 l 982 504 b 496 972 972 764 758 972 b 10 504 233 972 19 764 z m 10 468 l 982 468 l 982 0 l 504 0 b 10 468 233 0 19 208 z "},"g":{"ha":1000,"x_min":0,"x_max":0,"o":"m 10 504 l 10 468 l 38 468 l 38 504 l 982 504 b 496 972 972 764 758 972 b 10 504 233 972 19 764 z m 10 468 l 982 468 l 982 0 l 504 0 b 10 468 233 0 19 208 z "},"H":{"ha":1011,"x_min":0,"x_max":0,"o":"m 163 672 l 163 300 l 18 300 l 18 0 l 488 0 l 488 300 l 190 300 l 190 336 l 821 336 l 821 300 l 524 300 l 524 0 l 993 0 l 993 300 l 849 300 l 849 672 l 993 672 l 993 972 l 524 972 l 524 672 l 821 672 l 821 636 l 190 636 l 190 672 l 488 672 l 488 972 l 18 972 l 18 672 z "},"h":{"ha":1011,"x_min":0,"x_max":0,"o":"m 163 672 l 163 300 l 18 300 l 18 0 l 488 0 l 488 300 l 190 300 l 190 336 l 821 336 l 821 300 l 524 300 l 524 0 l 993 0 l 993 300 l 849 300 l 849 672 l 993 672 l 993 972 l 524 972 l 524 672 l 821 672 l 821 636 l 190 636 l 190 672 l 488 672 l 488 972 l 18 972 l 18 672 z "},"I":{"ha":479,"x_min":0,"x_max":0,"o":"m 18 972 l 18 504 l 226 504 l 226 468 l 18 468 l 18 0 l 461 0 l 461 468 l 254 468 l 254 504 l 461 504 l 461 972 z "},"i":{"ha":479,"x_min":0,"x_max":0,"o":"m 18 972 l 18 504 l 226 504 l 226 468 l 18 468 l 18 0 l 461 0 l 461 468 l 254 468 l 254 504 l 461 504 l 461 972 z "},"J":{"ha":697,"x_min":0,"x_max":0,"o":"m 18 972 l 18 504 l 535 504 l 535 468 l 18 468 l 18 0 l 257 0 b 563 264 411 0 547 114 l 563 504 l 679 504 l 679 972 z "},"j":{"ha":697,"x_min":0,"x_max":0,"o":"m 18 972 l 18 504 l 535 504 l 535 468 l 18 468 l 18 0 l 257 0 b 563 264 411 0 547 114 l 563 504 l 679 504 l 679 972 z "},"K":{"ha":1025,"x_min":0,"x_max":0,"o":"m 18 972 l 18 672 l 163 672 l 163 300 l 18 300 l 18 0 l 488 0 l 488 300 l 190 300 l 190 336 l 897 336 l 897 300 l 524 300 l 524 0 l 1007 0 l 1007 300 l 925 300 l 925 372 b 619 636 925 521 774 636 l 551 636 l 551 672 l 1007 672 l 1007 989 l 829 989 b 524 708 675 989 524 861 l 524 636 l 190 636 l 190 672 l 488 672 l 488 972 z "},"k":{"ha":1025,"x_min":0,"x_max":0,"o":"m 18 972 l 18 672 l 163 672 l 163 300 l 18 300 l 18 0 l 488 0 l 488 300 l 190 300 l 190 336 l 897 336 l 897 300 l 524 300 l 524 0 l 1007 0 l 1007 300 l 925 300 l 925 372 b 619 636 925 521 774 636 l 551 636 l 551 672 l 1007 672 l 1007 989 l 829 989 b 524 708 675 989 524 861 l 524 636 l 190 636 l 190 672 l 488 672 l 488 972 z "},"L":{"ha":864,"x_min":0,"x_max":0,"o":"m 846 0 l 846 468 l 213 468 l 213 504 l 461 504 l 461 972 l 18 972 l 18 504 l 185 504 l 185 468 l 18 468 l 18 0 z "},"l":{"ha":864,"x_min":0,"x_max":0,"o":"m 846 0 l 846 468 l 213 468 l 213 504 l 461 504 l 461 972 l 18 972 l 18 504 l 185 504 l 185 468 l 18 468 l 18 0 z "},"M":{"ha":1358,"x_min":0,"x_max":0,"o":"m 163 504 l 163 972 l 342 972 b 647 708 496 972 632 861 l 647 504 z m 18 0 l 18 468 l 260 468 l 288 468 l 442 468 l 442 0 z m 260 468 l 288 468 l 288 504 l 260 504 z m 478 0 l 881 0 l 881 468 l 711 468 l 711 504 l 683 504 l 683 708 b 989 972 699 861 835 972 l 1196 972 l 1196 504 l 683 504 l 683 468 l 647 468 l 647 504 l 619 504 l 619 468 l 478 468 z m 917 0 l 917 468 l 1043 468 l 1071 468 l 1340 468 l 1340 0 z m 1043 468 l 1071 468 l 1071 504 l 1043 504 z "},"m":{"ha":1358,"x_min":0,"x_max":0,"o":"m 163 504 l 163 972 l 342 972 b 647 708 496 972 632 861 l 647 504 z m 18 0 l 18 468 l 260 468 l 288 468 l 442 468 l 442 0 z m 260 468 l 288 468 l 288 504 l 260 504 z m 478 0 l 881 0 l 881 468 l 711 468 l 711 504 l 683 504 l 683 708 b 989 972 699 861 835 972 l 1196 972 l 1196 504 l 683 504 l 683 468 l 647 468 l 647 504 l 619 504 l 619 468 l 478 468 z m 917 0 l 917 468 l 1043 468 l 1071 468 l 1340 468 l 1340 0 z m 1043 468 l 1071 468 l 1071 504 l 1043 504 z "},"N":{"ha":958,"x_min":0,"x_max":0,"o":"m 18 0 l 18 468 l 188 468 l 215 468 l 429 468 l 429 0 z m 18 504 l 18 972 l 188 972 b 493 708 342 972 478 861 l 493 504 z m 188 468 l 215 468 l 215 504 l 188 504 z m 465 264 l 465 468 l 940 468 l 940 0 l 771 0 b 465 264 617 0 481 111 z m 465 468 l 493 468 l 493 504 l 465 504 z m 529 504 l 529 972 l 940 972 l 940 504 l 771 504 l 743 504 z m 743 468 l 771 468 l 771 504 l 743 504 z "},"n":{"ha":958,"x_min":0,"x_max":0,"o":"m 18 0 l 18 468 l 188 468 l 215 468 l 429 468 l 429 0 z m 18 504 l 18 972 l 188 972 b 493 708 342 972 478 861 l 493 504 z m 188 468 l 215 468 l 215 504 l 188 504 z m 465 264 l 465 468 l 940 468 l 940 0 l 771 0 b 465 264 617 0 481 111 z m 465 468 l 493 468 l 493 504 l 465 504 z m 529 504 l 529 972 l 940 972 l 940 504 l 771 504 l 743 504 z m 743 468 l 771 468 l 771 504 l 743 504 z "},"O":{"ha":1033,"x_min":0,"x_max":0,"o":"m 10 504 l 10 468 b 517 -21 24 193 246 -21 b 1024 468 811 -21 1024 215 l 1024 504 b 517 993 1024 757 788 993 b 10 504 272 993 29 825 z m 38 468 l 38 504 l 996 504 l 996 468 z "},"o":{"ha":1033,"x_min":0,"x_max":0,"o":"m 10 504 l 10 468 b 517 -21 24 193 246 -21 b 1024 468 811 -21 1024 215 l 1024 504 b 517 993 1024 757 788 993 b 10 504 272 993 29 825 z m 38 468 l 38 504 l 996 504 l 996 468 z "},"P":{"ha":860,"x_min":0,"x_max":0,"o":"m 164 672 l 164 300 l 18 300 l 18 0 l 529 0 l 529 300 l 192 300 l 192 336 l 543 336 b 850 636 703 336 836 476 l 850 672 b 542 972 846 838 708 972 l 18 972 l 18 672 z m 192 636 l 192 672 l 822 672 l 822 636 z "},"p":{"ha":860,"x_min":0,"x_max":0,"o":"m 164 672 l 164 300 l 18 300 l 18 0 l 529 0 l 529 300 l 192 300 l 192 336 l 543 336 b 850 636 703 336 836 476 l 850 672 b 542 972 846 838 708 972 l 18 972 l 18 672 z m 192 636 l 192 672 l 822 672 l 822 636 z "},"Q":{"ha":1011,"x_min":0,"x_max":0,"o":"m 10 504 l 10 468 b 506 0 24 207 240 0 l 506 -14 b 811 -278 521 -164 657 -278 l 964 -278 l 964 -14 l 533 -14 l 533 1 b 1001 468 786 15 988 217 l 1001 504 b 506 993 997 774 776 993 b 10 504 235 993 14 774 z m 38 468 l 38 504 l 974 504 l 974 468 z "},"q":{"ha":1011,"x_min":0,"x_max":0,"o":"m 10 504 l 10 468 b 506 0 24 207 240 0 l 506 -14 b 811 -278 521 -164 657 -278 l 964 -278 l 964 -14 l 533 -14 l 533 1 b 1001 468 786 15 988 217 l 1001 504 b 506 993 997 774 776 993 b 10 504 235 993 14 774 z m 38 468 l 38 504 l 974 504 l 974 468 z "},"R":{"ha":1003,"x_min":0,"x_max":0,"o":"m 18 300 l 18 0 l 488 0 l 488 300 l 192 300 l 192 336 l 522 336 l 522 264 b 826 -8 538 114 672 -8 l 985 -8 l 985 300 l 550 300 l 550 336 l 576 336 b 883 636 736 336 869 476 l 883 672 b 575 972 879 838 742 972 l 18 972 l 18 672 l 164 672 l 164 300 z m 192 636 l 192 672 l 856 672 l 856 636 z "},"r":{"ha":1003,"x_min":0,"x_max":0,"o":"m 18 300 l 18 0 l 488 0 l 488 300 l 192 300 l 192 336 l 522 336 l 522 264 b 826 -8 538 114 672 -8 l 985 -8 l 985 300 l 550 300 l 550 336 l 576 336 b 883 636 736 336 869 476 l 883 672 b 575 972 879 838 742 972 l 18 972 l 18 672 l 164 672 l 164 300 z m 192 636 l 192 672 l 856 672 l 856 636 z "},"S":{"ha":794,"x_min":0,"x_max":0,"o":"m 18 672 l 18 636 b 326 336 32 476 165 336 l 749 336 l 749 300 l 18 300 l 18 0 l 468 0 b 776 300 635 0 772 135 l 776 336 b 468 636 763 496 629 636 l 46 636 l 46 672 l 776 672 l 776 972 l 326 972 b 18 672 160 972 22 838 z "},"s":{"ha":794,"x_min":0,"x_max":0,"o":"m 18 672 l 18 636 b 326 336 32 476 165 336 l 749 336 l 749 300 l 18 300 l 18 0 l 468 0 b 776 300 635 0 772 135 l 776 336 b 468 636 763 496 629 636 l 46 636 l 46 672 l 776 672 l 776 972 l 326 972 b 18 672 160 972 22 838 z "},"T":{"ha":1057,"x_min":0,"x_max":0,"o":"m 18 972 l 18 504 l 515 504 l 515 468 l 307 468 l 307 0 l 750 0 l 750 468 l 543 468 l 543 504 l 1039 504 l 1039 972 z "},"t":{"ha":1057,"x_min":0,"x_max":0,"o":"m 18 972 l 18 504 l 515 504 l 515 468 l 307 468 l 307 0 l 750 0 l 750 468 l 543 468 l 543 504 l 1039 504 l 1039 972 z "},"U":{"ha":936,"x_min":0,"x_max":0,"o":"m 18 972 l 18 504 l 163 504 l 163 243 b 468 -21 178 93 314 -21 b 774 243 622 -21 758 93 l 774 504 l 918 504 l 918 972 l 486 972 l 486 504 l 746 504 l 746 468 l 190 468 l 190 504 l 450 504 l 450 972 z "},"u":{"ha":936,"x_min":0,"x_max":0,"o":"m 18 972 l 18 504 l 163 504 l 163 243 b 468 -21 178 93 314 -21 b 774 243 622 -21 758 93 l 774 504 l 918 504 l 918 972 l 486 972 l 486 504 l 746 504 l 746 468 l 190 468 l 190 504 l 450 504 l 450 972 z "},"V":{"ha":972,"x_min":0,"x_max":0,"o":"m 265 468 l 265 0 l 708 0 l 708 468 l 539 468 l 539 504 l 511 504 l 511 468 l 461 468 l 461 504 l 433 504 l 433 468 z m 18 504 l 18 972 l 156 972 b 461 708 310 972 461 861 l 461 504 z m 511 504 l 511 708 b 817 972 511 861 663 972 l 954 972 l 954 504 z "},"v":{"ha":972,"x_min":0,"x_max":0,"o":"m 265 468 l 265 0 l 708 0 l 708 468 l 539 468 l 539 504 l 511 504 l 511 468 l 461 468 l 461 504 l 433 504 l 433 468 z m 18 504 l 18 972 l 156 972 b 461 708 310 972 461 861 l 461 504 z m 511 504 l 511 708 b 817 972 511 861 663 972 l 954 972 l 954 504 z "},"W":{"ha":1418,"x_min":0,"x_max":0,"o":"m 508 972 l 508 468 l 472 468 l 472 504 l 444 504 l 444 468 l 292 468 l 290 0 l 692 0 l 692 468 l 536 468 l 536 504 l 882 504 l 882 468 l 728 468 l 726 0 l 1128 0 l 1128 468 l 974 468 l 974 504 l 946 504 l 946 468 l 910 468 l 910 972 z m 29 504 l 29 972 l 167 972 b 472 708 321 972 457 861 l 472 504 z m 946 504 l 946 708 b 1251 972 961 861 1097 972 l 1389 972 l 1389 504 z "},"w":{"ha":1418,"x_min":0,"x_max":0,"o":"m 508 972 l 508 468 l 472 468 l 472 504 l 444 504 l 444 468 l 292 468 l 290 0 l 692 0 l 692 468 l 536 468 l 536 504 l 882 504 l 882 468 l 728 468 l 726 0 l 1128 0 l 1128 468 l 974 468 l 974 504 l 946 504 l 946 468 l 910 468 l 910 972 z m 29 504 l 29 972 l 167 972 b 472 708 321 972 457 861 l 472 504 z m 946 504 l 946 708 b 1251 972 961 861 1097 972 l 1389 972 l 1389 504 z "},"X":{"ha":958,"x_min":0,"x_max":0,"o":"m 18 504 l 18 972 l 188 972 b 493 708 342 972 478 861 l 493 504 z m 18 0 l 18 468 l 429 468 l 429 264 b 124 0 414 111 278 0 z m 429 440 l 465 440 l 465 468 l 940 468 l 940 0 l 771 0 b 465 264 617 0 481 111 l 465 468 l 493 468 l 493 504 l 529 504 l 529 708 b 835 972 544 861 681 972 l 940 972 l 940 504 l 529 504 l 529 532 l 493 532 l 493 504 l 465 504 l 465 468 l 429 468 z "},"x":{"ha":958,"x_min":0,"x_max":0,"o":"m 18 504 l 18 972 l 188 972 b 493 708 342 972 478 861 l 493 504 z m 18 0 l 18 468 l 429 468 l 429 264 b 124 0 414 111 278 0 z m 429 440 l 465 440 l 465 468 l 940 468 l 940 0 l 771 0 b 465 264 617 0 481 111 l 465 468 l 493 468 l 493 504 l 529 504 l 529 708 b 835 972 544 861 681 972 l 940 972 l 940 504 l 529 504 l 529 532 l 493 532 l 493 504 l 465 504 l 465 468 l 429 468 z "},"Y":{"ha":936,"x_min":0,"x_max":0,"o":"m 18 972 l 18 672 l 163 672 l 163 600 b 454 336 178 454 306 343 l 454 300 l 247 300 l 247 0 l 690 0 l 690 300 l 482 300 l 482 336 b 774 600 631 343 758 454 l 774 672 l 918 672 l 918 972 l 488 972 l 488 672 l 746 672 l 746 636 l 190 636 l 190 672 l 451 672 l 451 972 z "},"y":{"ha":936,"x_min":0,"x_max":0,"o":"m 18 972 l 18 672 l 163 672 l 163 600 b 454 336 178 454 306 343 l 454 300 l 247 300 l 247 0 l 690 0 l 690 300 l 482 300 l 482 336 b 774 600 631 343 758 454 l 774 672 l 918 672 l 918 972 l 488 972 l 488 672 l 746 672 l 746 636 l 190 636 l 190 672 l 451 672 l 451 972 z "},"Z":{"ha":864,"x_min":0,"x_max":0,"o":"m 18 972 l 18 504 l 486 504 l 272 465 b 18 204 140 444 32 339 l 18 0 l 846 0 l 846 468 l 393 468 l 578 506 b 846 768 717 521 832 628 l 846 972 z "},"z":{"ha":864,"x_min":0,"x_max":0,"o":"m 18 972 l 18 504 l 486 504 l 272 465 b 18 204 140 444 32 339 l 18 0 l 846 0 l 846 468 l 393 468 l 578 506 b 846 768 717 521 832 628 l 846 972 z "},"\\":{"ha":481,"x_min":0,"x_max":0,"o":"m 46 972 l 18 972 l 435 0 l 463 0 z "},"¡":{"ha":336,"x_min":0,"x_max":0,"o":"m 318 672 l 318 972 l 18 972 l 18 672 z m 154 0 l 182 0 l 182 644 l 154 644 z "},"·":{"ha":336,"x_min":0,"x_max":0,"o":"m 18 621 l 18 321 l 318 321 l 318 621 z "},"¿":{"ha":772,"x_min":0,"x_max":0,"o":"m 624 672 l 624 972 l 324 972 l 324 672 z m 18 300 b 326 0 22 135 160 0 l 763 0 l 763 300 l 46 300 l 46 336 l 317 336 b 624 636 476 336 610 476 l 325 636 b 18 336 165 636 32 496 z "},"–":{"ha":958,"x_min":0,"x_max":0,"o":"m 18 496 l 18 468 l 940 468 l 940 496 z "},"—":{"ha":1358,"x_min":0,"x_max":0,"o":"m 18 496 l 18 468 l 1340 468 l 1340 496 z "},"‘":{"ha":336,"x_min":0,"x_max":0,"o":"m 318 504 l 318 804 l 46 804 l 18 804 l 18 504 z m 18 804 b 318 1104 18 971 151 1104 l 318 1076 b 46 804 163 1069 53 960 z "},"’":{"ha":336,"x_min":0,"x_max":0,"o":"m 18 972 l 18 672 l 290 672 l 318 672 l 318 972 z m 18 372 l 18 400 b 290 672 174 407 283 517 l 318 672 b 18 372 318 506 185 372 z "},"“":{"ha":672,"x_min":0,"x_max":0,"o":"m 318 504 l 318 804 l 46 804 l 18 804 l 18 504 z m 18 804 b 318 1104 18 971 151 1104 l 318 1076 b 46 804 163 1069 53 960 z m 354 504 l 654 504 l 654 804 l 382 804 l 354 804 z m 354 804 b 654 1104 354 971 488 1104 l 654 1076 b 382 804 499 1069 389 960 z "},"”":{"ha":672,"x_min":0,"x_max":0,"o":"m 354 972 l 354 672 l 626 672 l 654 672 l 654 972 z m 18 372 l 18 400 b 290 672 174 407 283 517 l 318 672 l 318 972 l 18 972 l 18 672 l 290 672 l 318 672 b 18 372 318 506 185 372 z m 354 372 l 354 400 b 626 672 510 407 619 517 l 654 672 b 354 372 654 506 521 372 z "},"„":{"ha":672,"x_min":0,"x_max":0,"o":"m 354 300 l 354 0 l 626 0 l 654 0 l 654 300 z m 18 -300 l 18 -272 b 290 0 174 -265 283 -156 l 318 0 l 318 300 l 18 300 l 18 0 l 290 0 l 318 0 b 18 -300 318 -167 185 -300 z m 354 -300 l 354 -272 b 626 0 510 -265 619 -156 l 654 0 b 354 -300 654 -167 521 -300 z "},"•":{"ha":479,"x_min":0,"x_max":0,"o":"m 18 706 l 18 238 l 461 238 l 461 706 z "},"…":{"ha":1008,"x_min":0,"x_max":0,"o":"m 18 300 l 18 0 l 318 0 l 318 300 z m 354 0 l 654 0 l 654 300 l 354 300 z m 690 0 l 990 0 l 990 300 l 690 300 z "}}}
